<svg xmlns="http://www.w3.org/2000/svg" viewBox="0 0 235.44 65.16"><defs><style>.cls-1{fill:red;}.cls-2{font-size:67.47px;font-family:MonotoonKK, Monotoon KK;}</style></defs><title>LOGO</title><g id="Layer_2" data-name="Layer 2"><g id="Layer_1-2" data-name="Layer 1"><path class="cls-1" d="M19.16,9.55,0,27.21,5.72,52.64,30.59,60.4,49.75,42.74,44,17.31Zm1.05,5.15a2.08,2.08,0,1,1-1.43,2.57A2.09,2.09,0,0,1,20.21,14.7ZM11.72,49.5a2.07,2.07,0,1,1,1.43-2.56A2.09,2.09,0,0,1,11.72,49.5ZM7.62,31.23a2.08,2.08,0,1,1,1.43-2.57A2.09,2.09,0,0,1,7.62,31.23Zm21.64,23a2.08,2.08,0,1,1,1.43-2.57A2.09,2.09,0,0,1,29.26,54.25Zm-.77-8.42a11.95,11.95,0,1,1,8.24-14.75A11.95,11.95,0,0,1,28.49,45.83ZM43,41.72a2.08,2.08,0,1,1,1.43-2.57A2.09,2.09,0,0,1,43,41.72ZM40.17,24.16A2.08,2.08,0,1,1,41.6,21.6,2.09,2.09,0,0,1,40.17,24.16Z"/><text class="cls-2" transform="translate(62.92 56.92)">MotorHives</text></g></g></svg>